<?xml version="1.0" encoding="UTF-8"?>
<svg version="1.1" xmlns="http://www.w3.org/2000/svg" width="1979" height="1979">
<path d="M0 0 C1.19173828 0.47872559 2.38347656 0.95745117 3.61132812 1.45068359 C60.08841451 24.33583536 112.18753648 55.89568222 159.21777344 94.54248047 C160.85827873 95.88409918 162.5081442 97.21264077 164.1640625 98.53515625 C169.09930916 102.49830887 173.70539124 106.56737069 178.11328125 111.109375 C179.96484998 112.96477721 181.88253673 114.67285573 183.875 116.375 C205.00133761 134.73134814 218.80533575 158.80938312 221 187 C221.61702993 200.2333227 220.55359291 213.01770553 216.48828125 225.6953125 C215.61279081 229.82762737 217.18304306 232.58747587 219.40625 236.01953125 C219.89818848 236.786604 220.39012695 237.55367676 220.89697266 238.34399414 C221.42597168 239.15860107 221.9549707 239.97320801 222.5 240.8125 C223.60277264 242.53568449 224.70432379 244.25965126 225.8046875 245.984375 C226.34963867 246.83708984 226.89458984 247.68980469 227.45605469 248.56835938 C237.54485804 264.45774606 246.73615898 280.92644079 254.95507812 297.85693359 C256.05631829 300.11550512 257.17668778 302.36405341 258.296875 304.61328125 C285.40462126 359.61609032 301.89562898 420.03407457 310.50927734 480.57617188 C310.93988229 483.58055186 311.39521343 486.57941081 311.86328125 489.578125 C315.99644231 516.7771575 317.49491968 544.52090061 318 572 C318.01659668 572.79647949 318.03319336 573.59295898 318.05029297 574.41357422 C318.14614501 579.61206834 318.10062124 584.80183505 318 590 C317.97679687 591.21333008 317.95359375 592.42666016 317.9296875 593.67675781 C316.67177211 655.85258227 308.67417442 716.37317567 295 777 C295.60247559 777.33620361 296.20495117 777.67240723 296.82568359 778.01879883 C323.12112429 792.71859396 348.3658024 808.2522209 372 827 C372.70366699 827.55800293 373.40733398 828.11600586 374.13232422 828.69091797 C389.54626196 840.98908592 403.60885121 854.5333745 417.5625 868.4375 C418.07982697 868.9520575 418.59715393 869.46661499 419.13015747 869.99676514 C424.97194244 875.81565755 430.68726897 881.68662028 436 888 C436.80183716 888.94178101 436.80183716 888.94178101 437.61987305 889.90258789 C499.96930273 963.52391507 538.74950956 1054.46303657 548 1155 C548.05784668 1155.67643555 548.11569336 1156.35287109 548.17529297 1157.04980469 C555.06611214 1242.3160241 537.50312293 1330.27652449 497.98583984 1406.10644531 C496.94534601 1408.10497681 495.9201267 1410.11097476 494.89453125 1412.1171875 C486.67216686 1428.06236678 477.17121341 1443.23112048 467 1458 C466.61021973 1458.56605957 466.22043945 1459.13211914 465.81884766 1459.71533203 C456.06555914 1473.79169978 445.66922447 1487.45676479 434 1500 C432.89085406 1501.2664899 431.78657346 1502.53725927 430.6875 1503.8125 C418.64155749 1517.59504291 406.04219748 1531.22516652 392 1543 C390.96617056 1543.89566313 389.93375584 1544.79296045 388.90234375 1545.69140625 C370.08918334 1562.0395773 350.14012847 1576.79132298 329 1590 C328.40219727 1590.37543945 327.80439453 1590.75087891 327.18847656 1591.13769531 C247.48770622 1640.92277035 137.12082601 1674.98531514 38.53125 1658.12890625 C21.43415815 1652.66313242 7.7021629 1642.11408533 -0.75 1626.0625 C-8.26145925 1610.15006658 -7.35196932 1594.07928748 -6.14663124 1576.91714668 C-6.05306319 1575.53880669 -5.9598832 1574.16044032 -5.86705136 1572.78205055 C-5.61224227 1569.01519391 -5.35196553 1565.24873259 -5.09074633 1561.48231579 C-4.80698907 1557.3766797 -4.5283962 1553.27069256 -4.24912965 1549.16474903 C-3.7594271 1541.97533815 -3.26643719 1534.7861586 -2.77126884 1527.59712219 C-2.0349296 1516.90655164 -1.30366938 1506.21563786 -0.5733944 1495.52465156 C0.73117945 1476.4286616 2.04083862 1457.33302296 3.35267965 1438.23753101 C4.50078024 1421.52536593 5.64726373 1404.81309092 6.79213333 1388.10070419 C6.86809215 1386.99192456 6.94405098 1385.88314493 7.02231158 1384.74076592 C7.33065799 1380.23979033 7.63899896 1375.73881438 7.94733046 1371.23783778 C10.83963477 1329.01695297 13.73717844 1286.79642914 16.63701984 1244.5760614 C19.21275961 1207.07396788 21.7836785 1169.57154674 24.35058594 1132.06884766 C27.2349717 1089.92798812 30.12250756 1047.78734633 33.01501048 1005.64704311 C33.32342568 1001.15367166 33.63183246 996.66029964 33.94023514 992.16692734 C34.05414278 990.50737108 34.05414278 990.50737108 34.17035159 988.81428844 C35.31649621 972.11490694 36.46022392 955.41536103 37.60276413 938.71573257 C38.90214964 919.72378499 40.2049734 900.73207676 41.51233576 881.74067654 C42.24370957 871.11495107 42.97243128 860.48905165 43.69731055 849.86288111 C44.18204443 842.76101996 44.67030598 835.65940697 45.16141165 828.55798361 C45.44094137 824.51454786 45.71897445 820.47102512 45.99271826 816.42719318 C46.24232384 812.74041918 46.49646245 809.0539853 46.75405307 805.36776086 C46.88804853 803.43411359 47.01736083 801.50014348 47.14641857 799.56616038 C48.76669502 776.62323249 52.48561054 758.5140603 69.6484375 742 C85.37553158 728.62413261 103.175762 726.84351543 123 728 C141.53837699 729.65597739 159.82927786 733.04878257 178 737 C178.10521973 736.34475342 178.21043945 735.68950684 178.31884766 735.0144043 C179.33210421 728.8133373 180.42813611 722.63234879 181.5859375 716.45703125 C187.00127693 687.44166207 191.03662934 658.47195904 193 629 C193.05784668 628.17290527 193.11569336 627.34581055 193.17529297 626.49365234 C197.114011 567.83363512 192.53692232 508.20387787 179 451 C178.73993164 449.89527344 178.47986328 448.79054688 178.21191406 447.65234375 C169.59304739 411.57336696 156.61665705 377.13963316 140 344 C139.60458008 343.20658203 139.20916016 342.41316406 138.80175781 341.59570312 C133.05534435 330.14345105 126.48209352 319.19454008 119.53588867 308.43066406 C118.50143216 306.79355565 117.51223781 305.12706613 116.56762695 303.43652344 C114.07596041 299.00831017 114.07596041 299.00831017 110.08374023 296.09570312 C107.89190839 295.61611931 105.80085701 295.39568192 103.5625 295.25 C101.949403 295.05867957 100.33739052 294.85800498 98.7265625 294.6484375 C97.92766602 294.54885742 97.12876953 294.44927734 96.30566406 294.34667969 C75.31237169 291.19012789 58.20285051 277.89873425 43.23925781 263.85083008 C38.0258832 258.97017897 32.58812479 254.44646489 27 250 C25.80110817 249.02202756 24.60325346 248.04278283 23.40625 247.0625 C15.86610772 240.91402715 8.20944905 235.24075794 0 230 C-1.02867188 229.31808594 -2.05734375 228.63617188 -3.1171875 227.93359375 C-18.43154083 217.86215432 -34.44000885 208.85304435 -51 201 C-51.86931152 200.58395508 -52.73862305 200.16791016 -53.63427734 199.73925781 C-68.47568256 192.66610226 -83.49602287 186.4654125 -99 181 C-99.96341309 180.6587207 -100.92682617 180.31744141 -101.91943359 179.96582031 C-160.9584957 159.22424361 -223.65750986 148.81707285 -286 145 C-286.63565887 144.95763214 -287.27131775 144.91526428 -287.92623901 144.87161255 C-305.42266659 143.73281884 -322.94403341 143.81253684 -340.46899414 143.81469727 C-343.92477715 143.814778 -347.38042611 143.80790538 -350.83618164 143.79418945 C-380.56520336 143.67820539 -410.09844468 144.68650082 -439.6875 147.75 C-440.4994281 147.83270142 -441.3113562 147.91540283 -442.14788818 148.00061035 C-505.31419745 154.5005536 -568.82375449 168.03963238 -627 194 C-627.98323242 194.43135254 -628.96646484 194.86270508 -629.97949219 195.30712891 C-670.21174589 212.98376396 -706.61243469 236.48371236 -738.69921875 266.52734375 C-752.86854979 279.66905246 -771.68166098 292.85258748 -791.59375 294.44140625 C-800.76366359 294.99274795 -800.76366359 294.99274795 -808.046875 299.9921875 C-810.3241457 303.14942901 -812.1663313 306.51071811 -813.93945312 309.97119141 C-815.24275148 312.46437955 -816.72036108 314.81520111 -818.22192383 317.19213867 C-870.21947819 400.40917833 -887.8104779 499.33683476 -885 643 C-884.9391925 643.69365662 -884.87838501 644.38731323 -884.81573486 645.10198975 C-882.10068077 676.05639377 -876.78110146 706.49170671 -871 737 C-870.39978027 736.86948242 -869.79956055 736.73896484 -869.18115234 736.60449219 C-796.67529054 721.02562216 -796.67529054 721.02562216 -770.59765625 736.234375 C-765.96829891 739.3809457 -761.95781007 743.05617513 -758 747 C-757.43539063 747.54140625 -756.87078125 748.0828125 -756.2890625 748.640625 C-744.76479089 760.71367145 -741.81607611 777.68709831 -740.80088806 793.66424561 C-740.70387083 795.06292885 -740.60587926 796.46154476 -740.50703776 797.86010027 C-740.28918325 800.97376039 -740.07839941 804.08779789 -739.8726989 807.20228434 C-739.51987186 812.54241768 -739.15130444 817.88141282 -738.7817297 823.22040939 C-738.19055178 831.7836401 -737.60724977 840.34738491 -737.02698898 848.91136169 C-735.98687162 864.2480094 -734.92370241 879.58303164 -733.85888352 894.91797945 C-733.29072581 903.10029891 -732.72327064 911.2826671 -732.15596867 919.46504593 C-732.09762081 920.30659357 -732.03927296 921.14814121 -731.97915699 922.01519029 C-730.53741585 942.81191321 -729.10365336 963.60918523 -727.67127991 984.40655518 C-727.60626655 985.3505064 -727.5412532 986.29445763 -727.47426975 987.26701344 C-723.68317265 1042.31349959 -719.89823927 1097.36041118 -716.1177966 1152.40763002 C-715.455294 1162.05430914 -714.79272308 1171.70098356 -714.13012695 1181.34765625 C-714.05695138 1182.41303682 -713.9837758 1183.47841739 -713.90838278 1184.57608223 C-711.52266042 1219.30962336 -709.12951205 1254.04264789 -706.7324369 1288.77540723 C-704.25508077 1324.67190821 -701.78450986 1360.56886961 -699.32272794 1396.4664422 C-698.97541311 1401.53094418 -698.62802422 1406.59544107 -698.28059196 1411.659935 C-698.21224602 1412.65625005 -698.14390008 1413.6525651 -698.07348304 1414.67907152 C-696.97643336 1430.66853312 -695.87231353 1446.65749889 -694.76553355 1462.64628958 C-693.65631135 1478.67268081 -692.5547283 1494.69958271 -691.46092988 1510.72703412 C-690.8119083 1520.2338119 -690.15710625 1529.7401498 -689.49392719 1539.24595069 C-689.0512428 1545.59955284 -688.61619284 1551.9536485 -688.18724567 1558.30819277 C-687.94301254 1561.92314043 -687.69557438 1565.53778512 -687.43878538 1569.15186444 C-683.91408357 1618.87143922 -683.91408357 1618.87143922 -700.78930664 1638.68334961 C-706.1493037 1644.68912945 -711.86678645 1649.18131726 -719 1653 C-719.70253906 1653.39703125 -720.40507813 1653.7940625 -721.12890625 1654.203125 C-732.69869821 1660.08681427 -747.04677652 1660.51241469 -759.75 1660.75 C-760.45654724 1660.7667981 -761.16309448 1660.78359619 -761.89105225 1660.80090332 C-807.21309586 1661.87117405 -852.18623204 1656.65693245 -896 1645 C-897.03672852 1644.72430176 -898.07345703 1644.44860352 -899.14160156 1644.16455078 C-951.17127977 1630.10224841 -1002.86998406 1606.65039128 -1046 1574 C-1047.21791817 1573.09913475 -1048.43673627 1572.1994854 -1049.65625 1571.30078125 C-1062.66701415 1561.67981924 -1075.34902656 1551.71076625 -1087.15625 1540.6328125 C-1089.30087729 1538.64726471 -1091.46695108 1536.73356981 -1093.68359375 1534.83203125 C-1098.87428167 1530.30933032 -1103.70672645 1525.43906915 -1108.5625 1520.5625 C-1109.46935547 1519.65951172 -1110.37621094 1518.75652344 -1111.31054688 1517.82617188 C-1116.41692798 1512.71238485 -1121.31711742 1507.5027366 -1126 1502 C-1126.98466271 1500.87020887 -1127.97030748 1499.74127276 -1128.95703125 1498.61328125 C-1135.60074353 1490.9556553 -1141.96091832 1483.1449286 -1148 1475 C-1148.50144531 1474.32453125 -1149.00289062 1473.6490625 -1149.51953125 1472.953125 C-1208.71853284 1392.86883087 -1242.17686627 1296.34984717 -1242.1875 1193.6875 C-1242.18656342 1192.71757111 -1242.18562683 1191.74764221 -1242.18466187 1190.74832153 C-1242.04676878 1124.6241706 -1227.51398365 1060.49261598 -1201 1000 C-1200.60458008 999.09717285 -1200.20916016 998.1943457 -1199.80175781 997.26416016 C-1183.30617994 960.07267411 -1160.07470029 924.77990029 -1133.5546875 893.9921875 C-1131.10314638 891.12081059 -1128.73440595 888.19721643 -1126.375 885.25 C-1122.82433059 880.87847691 -1119.02351122 876.91200227 -1114.98828125 872.98828125 C-1113.34198995 871.34198995 -1111.87636619 869.69884711 -1110.4375 867.875 C-1107.94447828 864.93451285 -1105.29779893 862.60682329 -1102.37109375 860.1171875 C-1098.95437606 857.06634567 -1095.76049811 853.8062992 -1092.56420898 850.52685547 C-1067.14229689 824.66076068 -1035.59033375 803.92677182 -1004.15722656 786.21679688 C-1001.33298785 784.62376771 -998.5203169 783.010885 -995.70727539 781.39819336 C-993.14076256 779.92759903 -990.57056242 778.46350128 -988 777 C-988.17539307 776.27039063 -988.35078613 775.54078125 -988.53149414 774.7890625 C-996.29013424 742.21634603 -1002.14634729 709.26622431 -1006 676 C-1006.13889648 674.82969238 -1006.27779297 673.65938477 -1006.42089844 672.45361328 C-1010.39569937 638.21888663 -1011.67860731 603.44930064 -1011 569 C-1010.98066406 567.88238281 -1010.96132813 566.76476562 -1010.94140625 565.61328125 C-1009.27423442 480.39137996 -991.88848135 395.07364955 -933 269 C-932.47019531 268.07219727 -931.94039062 267.14439453 -931.39453125 266.18847656 C-921.49688982 248.92637866 -921.49688982 248.92637866 -916.6640625 242.37890625 C-916.14142822 241.66589355 -915.61879395 240.95288086 -915.08032227 240.21826172 C-914.10421279 238.91228157 -913.10361263 237.62407031 -912.07397461 236.35986328 C-910.14615333 233.79775422 -908.94390847 232.10408484 -909.11035156 228.82788086 C-909.62161174 226.50115066 -910.28031574 224.27019326 -911 222 C-917.20808362 193.60798455 -914.22961638 165.81336638 -898.81640625 140.74609375 C-889.76552558 127.06271932 -877.3925576 115.64322493 -865 105 C-863.88249953 104.02640077 -862.76529678 103.0524597 -861.6484375 102.078125 C-854.16106445 95.59321231 -846.5216512 89.35465121 -838.68066406 83.30273438 C-837.07864595 82.0609609 -835.48821526 80.80428109 -833.8984375 79.546875 C-812.63806686 62.86152082 -789.4732009 48.34958713 -766 35 C-765.24074219 34.56623047 -764.48148438 34.13246094 -763.69921875 33.68554688 C-750.43329213 26.14068681 -736.86540084 19.37095763 -723 13 C-722.02466309 12.55156738 -721.04932617 12.10313477 -720.04443359 11.64111328 C-673.26776567 -9.71328534 -624.15647552 -25.76131559 -574 -37 C-572.16743652 -37.41330566 -572.16743652 -37.41330566 -570.29785156 -37.83496094 C-492.72661111 -55.24309904 -412.96157117 -61.91599841 0 0 Z " fill="#000000" transform="translate(1350,197)"/>
<path d="M0 0 C12.45264629 10.61475572 20.73582106 25.46177379 22.21875 41.8984375 C22.44246525 50.95194361 22.08102407 59.93839986 21.44626141 68.9670639 C21.32098156 70.83123973 21.32098156 70.83123973 21.19317082 72.73307568 C20.96233503 76.15364489 20.72729354 79.57387588 20.49039373 82.99402715 C20.23295617 86.72601889 19.98106564 90.4583859 19.7284382 94.19070578 C19.28555352 100.72254572 18.8391339 107.25413651 18.39035416 113.78557396 C17.72299275 123.4982398 17.06107695 133.21127151 16.40016486 142.92437805 C15.15082607 161.28208407 13.89493627 179.63933835 12.63685747 197.99644721 C11.66539304 212.17162797 10.69541096 226.34690942 9.72646523 240.52226257 C9.44735485 244.60528087 9.16823576 248.68829858 8.88911325 252.77131605 C8.81972012 253.78640463 8.75032699 254.80149321 8.67883105 255.84734205 C6.7275982 284.38918852 4.77422212 312.93088765 2.8166151 341.47229767 C2.70596407 343.08558944 2.70596407 343.08558944 2.59307766 344.73147297 C2.21920436 350.18249504 1.84531679 355.63351615 1.47142693 361.08453709 C1.36004684 362.70838233 1.36004684 362.70838233 1.24641665 364.36503253 C1.09625838 366.55423646 0.94609871 368.74344029 0.79593764 370.93264403 C-1.54102934 405.00423165 -3.86988003 439.07636591 -6.19262695 473.14892578 C-8.80307118 511.44167234 -11.42039077 549.73394069 -14.04733676 588.02555895 C-14.32742131 592.10857512 -14.60747895 596.19159313 -14.88751793 600.27461243 C-14.99095081 601.78259509 -14.99095081 601.78259509 -15.09647325 603.32104204 C-16.20564545 619.4943971 -17.30827607 635.66819173 -18.40862108 651.84214945 C-19.51454251 668.09541955 -20.62805423 684.34815608 -21.74923543 700.60038078 C-22.41491601 710.25295913 -23.07498523 719.90588249 -23.7269534 729.55939694 C-24.16328535 736.01167727 -24.60702693 742.46342072 -25.05673208 748.91478269 C-25.31255209 752.58770162 -25.56522237 756.26075958 -25.80885921 759.9345085 C-26.07194906 763.9004035 -26.3508836 767.86509727 -26.63123798 771.8298111 C-26.73974233 773.52299275 -26.73974233 773.52299275 -26.85043868 775.2503801 C-27.64713509 786.15070908 -29.18620211 797.31793351 -34.34375 807.0859375 C-34.69034668 807.75246338 -35.03694336 808.41898926 -35.39404297 809.10571289 C-43.33320668 823.70891987 -56.36907303 833.51143303 -72.16015625 838.2421875 C-88.76416775 842.39937667 -106.3872579 840.41149822 -121.22265625 831.66015625 C-125.8229237 828.49264385 -129.83461615 824.83831341 -133.78125 820.8984375 C-134.75578125 819.94130859 -134.75578125 819.94130859 -135.75 818.96484375 C-146.7140019 807.39974525 -150.33477932 792.61823751 -150.0841732 777.11200523 C-150.07349983 775.89720713 -150.06282646 774.68240902 -150.05182966 773.43079885 C-149.86787789 760.11966789 -149.02037397 746.85577496 -148.08163157 733.58027005 C-147.82485191 729.91768963 -147.57942708 726.25434278 -147.33240926 722.59109342 C-146.90009004 716.20218435 -146.46084106 709.81378283 -146.01677132 703.42568016 C-145.35645254 693.92638191 -144.70725169 684.42634547 -144.06011947 674.92614094 C-142.90363322 657.95351379 -141.736448 640.98163559 -140.56475346 624.01005233 C-139.53999093 609.1659284 -138.5191874 594.32153836 -137.50220871 579.47687912 C-137.43456797 578.48959763 -137.36692722 577.50231614 -137.29723676 576.48511702 C-137.02263323 572.47688566 -136.74805243 568.46865275 -136.47350294 564.46041768 C-133.90264045 526.92799398 -131.32137915 489.39629217 -128.73488568 451.86494274 C-126.43853157 418.54293527 -124.14949538 385.22043339 -121.8671875 351.89746094 C-121.72048862 349.75561251 -121.57378966 347.61376409 -121.4270906 345.47191568 C-121.3545643 344.41300635 -121.28203801 343.35409702 -121.20731394 342.26309952 C-120.84219946 336.93233458 -120.47707288 331.60157046 -120.11193275 326.27080727 C-120.03989172 325.21904979 -119.96785069 324.16729232 -119.8936266 323.0836634 C-117.9836727 295.20066396 -116.06869438 267.31800969 -114.15204179 239.43546999 C-114.08385969 238.44357934 -114.01567758 237.4516887 -113.94542935 236.42974077 C-113.37975199 228.20049924 -113.37975199 228.20049924 -113.12295456 224.46503983 C-112.17018676 210.60537297 -111.21917751 196.74558645 -110.26933278 182.88571897 C-109.04585646 165.033409 -107.81890038 147.18134371 -106.58593298 129.32968654 C-105.93436827 119.89456256 -105.2855956 110.45925671 -104.64091097 101.02366007 C-104.20973115 94.71720291 -103.77476785 88.41101397 -103.33675566 82.10502768 C-103.08751977 78.51535462 -102.83987166 74.9255924 -102.59680279 71.33549602 C-102.33434703 67.45970565 -102.06383223 63.58450069 -101.79259682 59.70931435 C-101.68255847 58.05582674 -101.68255847 58.05582674 -101.57029712 56.36893535 C-100.1263643 36.09721205 -96.42501809 17.24373096 -81 2.73828125 C-57.19896662 -16.99813904 -24.82951953 -18.76163133 0 0 Z " fill="#000000" transform="translate(1333.78125,977.1015625)"/>
<path d="M0 0 C14.07953329 11.08370475 21.45857232 25.77970263 23.62783363 43.44673622 C24.939468 54.7945318 25.58970397 66.21073251 26.36231525 77.60487749 C26.6109608 81.25696537 26.86484354 84.90869004 27.11802423 88.56046581 C27.56015671 94.94798565 27.99897528 101.33572631 28.43556786 107.72362709 C29.08484756 117.22334356 29.73926651 126.72270125 30.39463632 136.22199927 C31.63330968 154.1789292 32.86587212 172.13627541 34.0964563 190.09376127 C35.04709547 203.96578873 35.99923896 217.83771218 36.95243454 231.70956421 C37.22714449 235.70764549 37.50184923 239.70572712 37.77655351 243.70380878 C37.84485337 244.69784436 37.91315323 245.69187994 37.98352278 246.71603781 C39.90375147 274.66378087 41.82205154 302.61165576 43.73644447 330.55979919 C43.80857259 331.61278278 43.88070072 332.66576637 43.95501454 333.75065855 C44.32055577 339.08718614 44.68608135 344.4237148 45.05160232 349.76024377 C45.12419168 350.82002946 45.19678105 351.87981515 45.27157009 352.97171555 C45.41836323 355.11485938 45.56515528 357.25800328 45.71194625 359.40114726 C47.99518447 392.73563982 50.28524444 426.06965771 52.58056641 459.40332031 C55.16151603 496.88510083 57.73693199 534.36725596 60.30448759 571.84995651 C60.57854707 575.85055412 60.85262694 579.85115033 61.12672043 583.85174561 C61.1942018 584.83673604 61.26168317 585.82172648 61.33120944 586.83656511 C62.34793205 601.67541365 63.36898693 616.51396002 64.39229202 631.35235596 C65.55689452 648.23963903 66.71577417 665.12730366 67.86710788 682.01549679 C68.51070328 691.45348275 69.15876135 700.89113649 69.81342224 710.3283615 C70.25141766 716.64890291 70.68335319 722.96984048 71.11056802 729.29111965 C71.35339583 732.88167255 71.59864404 736.4720087 71.85133286 740.06188226 C72.76770712 753.10517041 73.56667347 766.11843993 73.62274742 779.19779968 C73.62943238 780.16245331 73.63611734 781.12710693 73.64300487 782.12099248 C73.55762091 799.25238529 66.35250959 812.82680574 54.40576172 824.81591797 C53.86435547 825.38052734 53.32294922 825.94513672 52.76513672 826.52685547 C41.39159021 837.38342259 25.30971795 841.3181099 10.05273438 841.16772461 C-6.67779602 840.65693618 -20.71882509 833.55389996 -32.55908203 821.87841797 C-42.25550865 811.35450636 -47.07658579 799.37869812 -48.57231712 785.20501709 C-48.654849 784.43874111 -48.73738087 783.67246513 -48.82241371 782.88296866 C-50.02665852 771.18407953 -50.75560002 759.44242754 -51.55079182 747.71027869 C-51.79991871 744.047375 -52.05351132 740.38477983 -52.30650079 736.72214127 C-52.74818725 730.31882198 -53.18706468 723.91531511 -53.62404442 717.51167297 C-54.27387622 707.98890026 -54.92808863 698.46643192 -55.58311288 688.94401515 C-56.82103852 670.94524927 -58.05380299 652.94613218 -59.28493287 634.94690037 C-60.23571453 621.0467518 -61.1878416 607.14669598 -62.1409111 593.2467041 C-62.27800436 591.24718615 -62.415097 589.24766815 -62.55218904 587.24815011 C-62.75879155 584.23481741 -62.96539418 581.22148471 -63.17199934 578.20815219 C-65.09178936 550.20749838 -67.00999439 522.20673636 -68.92492104 494.20574951 C-68.99704916 493.15106378 -69.06917728 492.09637806 -69.1434911 491.00973216 C-69.50903194 485.66458187 -69.87455811 480.31943058 -70.24007888 474.97427893 C-70.31266825 473.9127778 -70.38525761 472.85127666 -70.46004665 471.75760883 C-70.60683949 469.61099962 -70.75363154 467.46439035 -70.90042281 465.31778103 C-73.1850305 431.90926865 -75.47495467 398.50112438 -77.76904297 365.09326172 C-80.34841251 327.5308445 -82.92367557 289.96814894 -85.49296415 252.40504074 C-85.76702914 248.39840358 -86.04110847 244.39176739 -86.31519699 240.38513184 C-86.38267836 239.39864671 -86.45015974 238.41216159 -86.519686 237.39578298 C-87.5373582 222.52005847 -88.55824111 207.64455653 -89.58076859 192.76916504 C-90.74379372 175.8498116 -91.90253207 158.93017084 -93.05558445 142.0101347 C-93.70047845 132.54875275 -94.3487337 123.08761548 -95.00189881 113.62680085 C-95.43847322 107.29823612 -95.87054625 100.96937417 -96.29904458 94.64025752 C-96.5428913 91.04036845 -96.78859971 87.44063525 -97.03980942 83.84125185 C-98.7484894 59.32449817 -98.7484894 59.32449817 -98.77997398 48.41900635 C-98.78246949 47.72948435 -98.78496499 47.03996234 -98.78753612 46.32954574 C-98.62721908 29.59363689 -91.13426175 15.66937136 -79.69189453 3.85107422 C-57.93271047 -16.48419596 -23.61400658 -17.53873383 0 0 Z " fill="#000000" transform="translate(749.59423828125,976.18408203125)"/>
</svg>
